<svg xmlns="http://www.w3.org/2000/svg" xmlns:xlink="http://www.w3.org/1999/xlink" width="1920" height="1080" viewBox="0 0 1920 1080" fill="none"><defs><rect id="path_0" x="0" y="0" width="1920" height="1080" /><radialGradient id="linear_0" cx="50%" cy="0%" fx="50%" fy="0%" r="1" gradientTransform="translate(0.5 0) scale(0.5489583333333333 1) rotate(90) scale(1 1) translate(-0.5 0)" ><stop offset="0" stop-color="#5081B3" stop-opacity="1" /><stop offset="1" stop-color="#7DA0BE" stop-opacity="1" /></radialGradient><linearGradient id="linear_1" x1="0%" y1="50%" x2="100%" y2="50%" gradientUnits="objectBoundingBox"><stop offset="0" stop-color="#5B738F" stop-opacity="1" /><stop offset="1" stop-color="#5A728E" stop-opacity="1" /></linearGradient><linearGradient id="linear_2" x1="61.675000000000004%" y1="38.914%" x2="101.40199999999999%" y2="86.429%" gradientUnits="objectBoundingBox"><stop offset="0" stop-color="#735135" stop-opacity="1" /><stop offset="1" stop-color="#795638" stop-opacity="1" /></linearGradient><linearGradient id="linear_3" x1="39.94823529411764%" y1="42.42591546010287%" x2="47.058823529411754%" y2="115.15558335626683%" gradientUnits="objectBoundingBox"><stop offset="0" stop-color="#D8A86A" stop-opacity="1" /><stop offset="1" stop-color="#DBAC74" stop-opacity="1" /></linearGradient><linearGradient id="linear_4" x1="28.419%" y1="27.281%" x2="34.271%" y2="80.396%" gradientUnits="objectBoundingBox"><stop offset="0" stop-color="#DEAF77" stop-opacity="1" /><stop offset="0.5243" stop-color="#DEB47C" stop-opacity="1" /><stop offset="1" stop-color="#B58B57" stop-opacity="1" /></linearGradient><linearGradient id="linear_5" x1="40.487%" y1="35.667%" x2="43.873%" y2="63.419000000000004%" gradientUnits="objectBoundingBox"><stop offset="0" stop-color="#D9A76A" stop-opacity="1" /><stop offset="0.482" stop-color="#DBB381" stop-opacity="1" /><stop offset="1" stop-color="#D9A76A" stop-opacity="1" /></linearGradient></defs><g opacity="1" transform="translate(0 0)  rotate(0 960 540)"><rect fill="#FFFFFF" opacity="1" transform="translate(0 0)  rotate(0 960 540)" x="0" y="0" width="1920" height="1080" /><mask id="bg-mask" fill="white"><use xlink:href="#path_0"></use></mask><g mask="url(#bg-mask)" ><path id="背景" fill-rule="evenodd" fill="url(#linear_0)" transform="translate(0 -3)  rotate(0 960 527)" opacity="1" d="M0,746C0,746 555.07,1053.14 945.54,1054C1340.04,1054.86 1920,746 1920,746L1920,0L0,0L0,746Z " /><path id="右侧山" fill-rule="evenodd" style="fill:#5B738F" transform="translate(1644 538.0000000000002)  rotate(0 137 78.74999999999989)" opacity="1" d="M8,44.5L0,49L274,157.5L274,0L251,3L234.5,9L207,15.5L196,13L186,15.5L186,13L174,13L159.5,21L149.5,21L136.5,28.5L123.5,31.5L114,36L97.5,28.5L79.5,36L64,28.5L49,41.5L28.5,41.5L23.5,49L14,44.5L8,44.5Z " /><path id="左侧山" fill-rule="evenodd" fill="url(#linear_1)" transform="translate(-7 518)  rotate(0 137 78.74999999999989)" opacity="1" d="M23,3L0,0L0,157.5L274,49L266,44.5L260,44.5L250.5,49L245.5,41.5L225,41.5L210,28.5L194.5,36L176.5,28.5L160,36L150.5,31.5L137.5,28.5L124.5,21L114.5,21L100,13L88,13L88,15.5L78,13L67,15.5L39.5,9L23,3Z " /><path id="底部黑" fill-rule="evenodd" fill="url(#linear_2)" transform="translate(0 376)  rotate(0 960 352)" opacity="1" d="M1528,162L1147.5,0C1147.5,0 1075.39,31.81 1003.5,44.5C933.15,56.92 863,50.11 863,60C863,100.96 1014,104 1128,171.5C1244,213 1244,292.5 1244,292.5C1114.5,328 1188.5,292.5 1049,306.5C973.97,302.63 864.53,319.6 774.5,349C639.59,417.74 473.55,574.5 390.5,574.5C204,574.5 0.5,554.5 0.5,554.5L0,554.5L0,704L1920,704L1920,306.5L1528,162Z " /><path id="左侧灰" fill-rule="evenodd" fill="url(#linear_3)" transform="translate(0 699.5000000000002)  rotate(0 429.25 129.52843909493703)" opacity="1" d="M846.61 3.21C854.14 1.04 858.5 0 858.5 0L846.61 3.21ZM846.61 3.21C811.53 13.28 707.57 47.73 653.48 115.05C587.78 196.84 533.88 216.14 423.51 246.62C343.01 268.85 222 254.5 222 254.5L0 231.38L846.61 3.21Z" /><path id="左侧灰2" fill-rule="evenodd" fill="url(#linear_4)" transform="translate(-1.5 432)  rotate(0 623 249.4999999999999)" opacity="1" d="M1144,116C1112.86,96.73 1051.07,80.35 1002,59C932.43,28.72 869,41 869,0L440,145L0,273.5L1,499L815,281.5C815,281.5 946.99,244.43 1062.5,252.5C1168.76,259.92 1229,257 1246,234.5C1246,188.35 1219.3,162.6 1144,116Z " /><path id="左侧灰3" fill-rule="evenodd" fill="url(#linear_5)" transform="translate(-0.5 351.5)  rotate(0 574 176.75)" opacity="1" d="M871,82C932.4,74.34 964.76,81.61 1025,67.5C1078.29,55.02 1148,24.5 1148,24.5C1148,24.5 1045.99,24.4 974.5,20.5C900.55,16.46 790.5,0 790.5,0C790.5,0 558.69,106.87 399,165C242.01,222.15 0,288.5 0,288.5L0,353.5C0,353.5 558.5,202 871,82Z " /></g></g></svg>