<svg xmlns="http://www.w3.org/2000/svg" xmlns:xlink="http://www.w3.org/1999/xlink" width="1920" height="1080" viewBox="0 0 1920 1080" fill="none"><defs><rect id="path_0" x="0" y="0" width="1920" height="1080" /><linearGradient id="linear_0" x1="78.84100000000001%" y1="0%" x2="59.875%" y2="100%" gradientUnits="objectBoundingBox"><stop offset="0" stop-color="#1377BA" stop-opacity="1" /><stop offset="1" stop-color="#1584CB" stop-opacity="1" /></linearGradient><linearGradient id="linear_1" x1="0%" y1="50%" x2="100%" y2="50%" gradientUnits="objectBoundingBox"><stop offset="0" stop-color="#23B7F3" stop-opacity="1" /><stop offset="1" stop-color="#0F74BA" stop-opacity="1" /></linearGradient><linearGradient id="linear_2" x1="32.2%" y1="66.24600000000001%" x2="48.461%" y2="25.459%" gradientUnits="objectBoundingBox"><stop offset="0" stop-color="#0BA6E6" stop-opacity="1" /><stop offset="1" stop-color="#13A1E1" stop-opacity="1" /></linearGradient><linearGradient id="linear_3" x1="50%" y1="9.495000000000001%" x2="42.306%" y2="50%" gradientUnits="objectBoundingBox"><stop offset="0" stop-color="#B5D6F9" stop-opacity="1" /><stop offset="1" stop-color="#E5EFF8" stop-opacity="1" /></linearGradient><linearGradient id="linear_4" x1="50%" y1="94.351%" x2="62.744%" y2="22.09%" gradientUnits="objectBoundingBox"><stop offset="0" stop-color="#FDA716" stop-opacity="1" /><stop offset="1" stop-color="#FDA20B" stop-opacity="1" /></linearGradient><linearGradient id="linear_5" x1="46.778999999999996%" y1="27.981%" x2="33.103%" y2="66.73400000000001%" gradientUnits="objectBoundingBox"><stop offset="0" stop-color="#FF0D69" stop-opacity="1" /><stop offset="1" stop-color="#FF3D48" stop-opacity="1" /></linearGradient><linearGradient id="linear_6" x1="37.431%" y1="65.208%" x2="50%" y2="20.014000000000003%" gradientUnits="objectBoundingBox"><stop offset="0" stop-color="#FF0463" stop-opacity="1" /><stop offset="1" stop-color="#FE0138" stop-opacity="1" /></linearGradient><linearGradient id="linear_7" x1="-2.689%" y1="125.30399999999999%" x2="12.346%" y2="-7.838000000000001%" gradientUnits="objectBoundingBox"><stop offset="0" stop-color="#463C78" stop-opacity="1" /><stop offset="1" stop-color="#F20B75" stop-opacity="1" /></linearGradient></defs><g opacity="1" transform="translate(0 0)  rotate(0 960 540)"><rect fill="#FFFFFF" opacity="1" transform="translate(0 0)  rotate(0 960 540)" x="0" y="0" width="1920" height="1080" /><mask id="bg-mask" fill="white"><use xlink:href="#path_0"></use></mask><g mask="url(#bg-mask)" ><path id="路径 9" fill-rule="evenodd" style="fill:#FE5B38" transform="translate(1148 383)  rotate(0 398.49999999999994 177.25)" opacity="1" d="M172,0L0,0L35,91.5L302,181L435.5,270.5L677.5,314.5L797,354.5L797,270.5L653,270.5L435.5,135.5L172,0Z " /><path id="路径 8" fill-rule="evenodd" fill="url(#linear_0)" transform="translate(1184 -63)  rotate(0 438.00000000000006 170)" opacity="1" d="M716.86,330.98C917.19,276.88 884.98,161.66 849.71,118.08L576.57,0L0,52.35L0,94.81C154.96,181.89 516.52,385.07 716.86,330.98Z " /><path id="路径 7" fill-rule="evenodd" fill="url(#linear_1)" transform="translate(490 -20)  rotate(0 739 218.5)" opacity="1" d="M123.02,67.52C197.03,78.53 255.04,101.06 329.05,140.37C403.06,179.68 617.6,224.22 691.61,224.22C765.62,224.22 1012.16,290.78 1044.16,322.75C1076.17,354.72 1328.91,412.32 1437.22,437C1465.54,373.17 1512.74,224.22 1437.22,224.22C1361.71,224.22 1124.17,224.22 1044.16,202.74C964.15,181.25 780.12,67.52 780.12,56.52C781.21,59.31 780.12,56.52 765.62,19.31C751.12,-17.9 385.66,8.15 229.04,19.31L0,19.31L123.02,67.52Z " /><path id="路径 6" fill-rule="evenodd" fill="url(#linear_2)" transform="translate(426 0)  rotate(0 790.9999999999999 203)" opacity="1" d="M424,87.5C285,58.5 282.2,40.3 281,32.5L0,0L56.5,40.5L150.5,95.5L368,243L486,243C547.99,255.75 695,285.5 704.5,285.5C714,285.5 1127,364 1149.5,364C1172,364 1397.75,393.4 1494.5,406L1582,373.5C1529.61,363.98 1389.5,335.5 1318,310.5C1246.5,285.5 1019,209.5 961.5,187C904,164.5 838,187 734,150.5C630,114 485.8,95.45 424,87.5Z " /><path id="路径 5" fill-rule="evenodd" fill="url(#linear_3)" transform="translate(714 169)  rotate(0 615.4000000000003 195.75)" opacity="1" d="M606,73C517.5,33.5 433.5,39.5 245.5,36.5C57.5,33.5 17.25,10.05 0,0C56.77,33.75 205,112.5 268,112.5C331,112.5 414,206 481.5,206C549,206 807,254 919,299C1031,344 1144.4,377.25 1193,391.5C1219.25,352.05 1263,254 1193,230C1123,206 1024.5,153 877,156C729.5,159 694.5,112.5 606,73Z " /><path id="路径 4" fill-rule="evenodd" fill="url(#linear_4)" transform="translate(962 316)  rotate(0 532.9999999999998 183.52400304083227)" opacity="1" d="M339.5,56C202.64,31.74 36.33,7.9 0,0C71.51,36.3 271.5,121 404,121C536.5,121 496.5,208 644.5,264C792.5,320 717.5,323 790.5,352C863.5,381 931.05,360.7 960,352L1066,279C1042.79,264.22 927.5,208 683,121C582.28,85.16 476.19,80.22 339.5,56Z " /><path id="路径 3" fill-rule="evenodd" fill="url(#linear_5)" transform="translate(-23 -48)  rotate(0 985 466.5)" opacity="1" d="M81.02,302.28L296.58,486.53L790.7,671.85L1065.77,840.07L1500.88,933L1735.44,933L1947.99,895.62L1970,768.51C1948.02,751.85 1864.47,712.97 1735.44,712.97C1606.41,712.97 1673.92,712.97 1587.4,637.13C1500.88,561.3 1400.86,581.59 1321.84,534.06C1242.82,486.53 1140.79,352.56 1065.77,336C990.75,319.44 911.73,302.28 790.7,207.75C669.67,113.22 567.09,65.74 523.13,45.39L0,0L0,207.75L81.02,302.28Z " /><path id="路径 2" fill-rule="evenodd" fill="url(#linear_6)" transform="translate(0 182)  rotate(0 961.5 448.99999999999994)" opacity="1" d="M359.65,475C481.38,523 636.31,517.5 742.94,615.5C849.58,713.5 1116.17,656.5 1356.11,706C1596.04,755.5 1619.28,782.8 1629.24,794.5C1826.93,841 1894.18,880.9 1923,898L1923,598C1919.76,589.23 1880.75,578.5 1755,617.5C1629.24,656.5 1298.62,615.55 1156.92,598C1054.3,578.5 827.95,394 576.45,350C324.94,306 97.48,91.8 0,0L0,306L97.58,394C195.17,482 237.92,427 359.65,475Z " /><path id="路径 1" fill-rule="evenodd" fill="url(#linear_7)" transform="translate(0 441)  rotate(0 960 319.5)" opacity="1" d="M0,0L0,639L1920,639C1894.65,594.11 1835.48,489.38 1527.75,483.38C1471.52,446.9 1340.32,361.78 1030.6,361.78C720.87,361.78 843.67,238.69 587.14,227.18C330.61,215.67 280.89,90.57 181.46,90.57C82.03,90.57 17.15,27.17 0,0Z " /></g></g></svg>